<svg xmlns="http://www.w3.org/2000/svg" width="480" height="480" viewBox="0 0 480 480">
<line x1="0" y1="0" x2="480" y2="0" stroke="rgba(224,231,255,0.05)" stroke-width="1" stroke-dasharray="2 6"/>
<line x1="0" y1="24" x2="480" y2="24" stroke="rgba(224,231,255,0.05)" stroke-width="1" stroke-dasharray="2 6"/>
<line x1="0" y1="48" x2="480" y2="48" stroke="rgba(224,231,255,0.05)" stroke-width="1" stroke-dasharray="2 6"/>
<line x1="0" y1="72" x2="480" y2="72" stroke="rgba(224,231,255,0.05)" stroke-width="1" stroke-dasharray="2 6"/>
<line x1="0" y1="96" x2="480" y2="96" stroke="rgba(224,231,255,0.05)" stroke-width="1" stroke-dasharray="2 6"/>
<line x1="0" y1="120" x2="480" y2="120" stroke="rgba(224,231,255,0.05)" stroke-width="1" stroke-dasharray="2 6"/>
<line x1="0" y1="144" x2="480" y2="144" stroke="rgba(224,231,255,0.05)" stroke-width="1" stroke-dasharray="2 6"/>
<line x1="0" y1="168" x2="480" y2="168" stroke="rgba(224,231,255,0.05)" stroke-width="1" stroke-dasharray="2 6"/>
<line x1="0" y1="192" x2="480" y2="192" stroke="rgba(224,231,255,0.05)" stroke-width="1" stroke-dasharray="2 6"/>
<line x1="0" y1="216" x2="480" y2="216" stroke="rgba(224,231,255,0.05)" stroke-width="1" stroke-dasharray="2 6"/>
<line x1="0" y1="240" x2="480" y2="240" stroke="rgba(224,231,255,0.05)" stroke-width="1" stroke-dasharray="2 6"/>
<line x1="0" y1="264" x2="480" y2="264" stroke="rgba(224,231,255,0.05)" stroke-width="1" stroke-dasharray="2 6"/>
<line x1="0" y1="288" x2="480" y2="288" stroke="rgba(224,231,255,0.05)" stroke-width="1" stroke-dasharray="2 6"/>
<line x1="0" y1="312" x2="480" y2="312" stroke="rgba(224,231,255,0.05)" stroke-width="1" stroke-dasharray="2 6"/>
<line x1="0" y1="336" x2="480" y2="336" stroke="rgba(224,231,255,0.05)" stroke-width="1" stroke-dasharray="2 6"/>
<line x1="0" y1="360" x2="480" y2="360" stroke="rgba(224,231,255,0.05)" stroke-width="1" stroke-dasharray="2 6"/>
<line x1="0" y1="384" x2="480" y2="384" stroke="rgba(224,231,255,0.05)" stroke-width="1" stroke-dasharray="2 6"/>
<line x1="0" y1="408" x2="480" y2="408" stroke="rgba(224,231,255,0.05)" stroke-width="1" stroke-dasharray="2 6"/>
<line x1="0" y1="432" x2="480" y2="432" stroke="rgba(224,231,255,0.05)" stroke-width="1" stroke-dasharray="2 6"/>
<line x1="0" y1="456" x2="480" y2="456" stroke="rgba(224,231,255,0.05)" stroke-width="1" stroke-dasharray="2 6"/>
<line x1="0" y1="480" x2="480" y2="480" stroke="rgba(224,231,255,0.05)" stroke-width="1" stroke-dasharray="2 6"/>
<line x1="0" y1="0" x2="0" y2="480" stroke="rgba(224,231,255,0.05)" stroke-width="1" stroke-dasharray="2 6"/>
<line x1="24" y1="0" x2="24" y2="480" stroke="rgba(224,231,255,0.05)" stroke-width="1" stroke-dasharray="2 6"/>
<line x1="48" y1="0" x2="48" y2="480" stroke="rgba(224,231,255,0.05)" stroke-width="1" stroke-dasharray="2 6"/>
<line x1="72" y1="0" x2="72" y2="480" stroke="rgba(224,231,255,0.05)" stroke-width="1" stroke-dasharray="2 6"/>
<line x1="96" y1="0" x2="96" y2="480" stroke="rgba(224,231,255,0.05)" stroke-width="1" stroke-dasharray="2 6"/>
<line x1="120" y1="0" x2="120" y2="480" stroke="rgba(224,231,255,0.05)" stroke-width="1" stroke-dasharray="2 6"/>
<line x1="144" y1="0" x2="144" y2="480" stroke="rgba(224,231,255,0.05)" stroke-width="1" stroke-dasharray="2 6"/>
<line x1="168" y1="0" x2="168" y2="480" stroke="rgba(224,231,255,0.05)" stroke-width="1" stroke-dasharray="2 6"/>
<line x1="192" y1="0" x2="192" y2="480" stroke="rgba(224,231,255,0.05)" stroke-width="1" stroke-dasharray="2 6"/>
<line x1="216" y1="0" x2="216" y2="480" stroke="rgba(224,231,255,0.05)" stroke-width="1" stroke-dasharray="2 6"/>
<line x1="240" y1="0" x2="240" y2="480" stroke="rgba(224,231,255,0.05)" stroke-width="1" stroke-dasharray="2 6"/>
<line x1="264" y1="0" x2="264" y2="480" stroke="rgba(224,231,255,0.05)" stroke-width="1" stroke-dasharray="2 6"/>
<line x1="288" y1="0" x2="288" y2="480" stroke="rgba(224,231,255,0.05)" stroke-width="1" stroke-dasharray="2 6"/>
<line x1="312" y1="0" x2="312" y2="480" stroke="rgba(224,231,255,0.05)" stroke-width="1" stroke-dasharray="2 6"/>
<line x1="336" y1="0" x2="336" y2="480" stroke="rgba(224,231,255,0.05)" stroke-width="1" stroke-dasharray="2 6"/>
<line x1="360" y1="0" x2="360" y2="480" stroke="rgba(224,231,255,0.05)" stroke-width="1" stroke-dasharray="2 6"/>
<line x1="384" y1="0" x2="384" y2="480" stroke="rgba(224,231,255,0.05)" stroke-width="1" stroke-dasharray="2 6"/>
<line x1="408" y1="0" x2="408" y2="480" stroke="rgba(224,231,255,0.05)" stroke-width="1" stroke-dasharray="2 6"/>
<line x1="432" y1="0" x2="432" y2="480" stroke="rgba(224,231,255,0.05)" stroke-width="1" stroke-dasharray="2 6"/>
<line x1="456" y1="0" x2="456" y2="480" stroke="rgba(224,231,255,0.05)" stroke-width="1" stroke-dasharray="2 6"/>
<line x1="480" y1="0" x2="480" y2="480" stroke="rgba(224,231,255,0.05)" stroke-width="1" stroke-dasharray="2 6"/>
<text x="165" y="97" font-family="monospace" font-size="11" fill="rgba(0,212,255,0.10)" letter-spacing="2">:[]-]&gt;</text>
<text x="29" y="279" font-family="monospace" font-size="9" fill="rgba(0,212,255,0.10)" letter-spacing="2">[]\\</text>
<text x="123" y="66" font-family="monospace" font-size="11" fill="rgba(0,212,255,0.10)" letter-spacing="2">\[|]}::</text>
<text x="31" y="315" font-family="monospace" font-size="10" fill="rgba(0,212,255,0.10)" letter-spacing="2">\[}[-{&lt;</text>
<text x="73" y="296" font-family="monospace" font-size="11" fill="rgba(0,212,255,0.10)" letter-spacing="2">|&lt;-</text>
<text x="92" y="72" font-family="monospace" font-size="11" fill="rgba(0,212,255,0.10)" letter-spacing="2">|:}&gt;]-]</text>
<text x="30" y="336" font-family="monospace" font-size="10" fill="rgba(0,212,255,0.10)" letter-spacing="2">/:-\</text>
<text x="238" y="319" font-family="monospace" font-size="11" fill="rgba(0,212,255,0.10)" letter-spacing="2">&gt;&lt;}{}]</text>
<text x="153" y="288" font-family="monospace" font-size="11" fill="rgba(0,212,255,0.10)" letter-spacing="2">&gt;/&lt;|]]</text>
<text x="214" y="104" font-family="monospace" font-size="10" fill="rgba(0,212,255,0.10)" letter-spacing="2">&gt;{/\[:]-|</text>
<text x="174" y="375" font-family="monospace" font-size="9" fill="rgba(0,212,255,0.10)" letter-spacing="2">|/|/]</text>
<text x="138" y="262" font-family="monospace" font-size="10" fill="rgba(0,212,255,0.10)" letter-spacing="2">:][&lt;:|:/</text>
<text x="366" y="217" font-family="monospace" font-size="9" fill="rgba(0,212,255,0.10)" letter-spacing="2">&gt;[/&gt;{|]/</text>
<text x="111" y="413" font-family="monospace" font-size="9" fill="rgba(0,212,255,0.10)" letter-spacing="2">{}\\/</text>
</svg>